<svg height="512" width="512" xmlns="http://www.w3.org/2000/svg"><g><g fill="#020204"><path d="m247.14062 100.56445c-2.91275-.0218-5.82352.11621-8.72656.45117-2.53587.29264-5.06592.75988-7.55665 1.38672.13194 1.43191.20984 2.87015.23048 4.30664.0205 1.42854-.0322 2.8588-.13482 4.28516 6.38773-1.7847 13.23195-2.11108 19.5586-.19336 1.38684.42038 2.73193.95683 4.05664 1.54297-.36356-.88147-.70057-1.77119-1.00976-2.66797-.99456-2.88443-1.73123-5.90791-2.07032-8.95117-1.44878-.0854-2.89842-.14932-4.34766-.16015z"/><path d="m201.38281 125.42773c-1.77915 3.61751-3.17627 7.4541-4.33397 11.35742.62888-1.05806 1.35643-2.06322 2.13476-3.01757 1.53029-1.87638 3.2318-3.61254 5.07226-5.18555-.36932-.31628-.72872-.64154-1.06836-.98828-.65895-.67274-1.25654-1.40156-1.80469-2.16602z"/><path d="m194.35742 147.33594c-1.76019 7.74486-3.35411 15.54312-6.3164 22.89844-1.62764 4.04136-3.64769 7.87763-5.86914 11.60937-6.40579 16.56694-21.72319 47.85005-28.00977 70.08594-2.82915 8.35063-5.75976 16.66852-9.25586 24.75976-2.12942 4.92827-4.46709 9.7756-6.26563 14.83399-4.12604 11.60464-5.29894 24.42023-2.17578 36.33398 1.25418 4.78423 3.18386 9.38951 5.70508 13.64453.16572.27968.34907.54762.51953.82422-.0753-5.44682.13995-10.89769.66993-16.3125 1.79481-18.33932 6.89976-36.28939 14.33789-53.14844 4.90773-11.12372 10.83271-21.79798 17.67578-31.84765-.65662-6.34601-.0492-12.82074 1.77734-18.9336 3.016-10.09349 9.19549-18.89534 15.30859-27.4746 3.53009-4.95424 7.13721-10.03769 8.7461-15.9043 1.50489-5.48744 1.15709-11.28093 1.375-16.9668.0788-2.05984.24053-4.12401.58594-6.1543-1.26616-1.13354-2.60919-2.17588-4.05079-3.08203-.74912-.4709-1.52275-.9052-2.23828-1.42578-.71552-.52059-1.37676-1.13659-1.83007-1.89648-.20906-.35042-.35817-.73227-.46876-1.125-.04-.0868-.0857-.17084-.11523-.26172-.0485-.14872-.0817-.30241-.10547-.45703zm-57.07812 193.07031c.35345.59408.73427 1.16783 1.1289 1.73242-.39452-.56421-.77563-1.13865-1.1289-1.73242zm1.47851 2.21289c.28883.39686.58464.78965.89063 1.17383-.30646-.38451-.60138-.7766-.89063-1.17383zm-19.61328.69336c-.0529.00083-.10536.006-.1582.008.32552-.009.6509-.005.97656.006-.2725-.009-.54588-.018-.81836-.0137zm-.23242.0117c-.36248.011-.72361.0324-1.08399.0684.35982-.0359.72214-.0569 1.08399-.0684zm1.24805.006c.32923.0147.65665.0438.98437.0781-.32769-.0348-.65514-.0628-.98437-.0781zm1.14062.0918c.37993.0434.75919.0987 1.13477.16796-.37567-.0693-.75466-.12406-1.13477-.16796zm18.77149.89453c.3445.41693.69759.82628 1.05859 1.23047-.36084-.40379-.71421-.81398-1.05859-1.23047zm1.31835 1.52539c.47479.52279.95968 1.0373 1.45508 1.54297-.49534-.50562-.98022-1.02034-1.45508-1.54297z"/><path d="m328.81445 408.06835c-2.7901 3.00028-5.71566 5.8857-8.65625 8.73438-10.79029 10.4531-21.98182 20.78474-35.24024 27.8496-4.0803 2.17427-8.33035 3.99344-12.69531 5.47072-7.34266 2.41321-15.0309 3.51554-22.73437 4.33788-2.08105.22215-4.34081.21505-6.08984.17774-12.09401-.25796-24.20693-2.37502-35.39452-6.97656-3.07845-1.15463-5.9563-2.06253-8.60158-3.459 7.39332 9.52554 10.44736 24.55504 13.60743 32.32813 5.94358-1.11974 11.93323-1.9954 17.97264-2.13476 1.91008-.0441 3.83161-.0273 5.73049-.19336 5.27492.57734 10.58763.79335 15.90624.58399.66728-.0263 1.33271-.0643 1.99804-.10362 1.35708.15059 2.72644.23335 4.0879.31251 9.32833.54264 18.63959 1.45035 27.87891 2.84572 8.12622 1.22717 16.19451 2.83182 24.18163 4.76758 3.70889.8988 7.41424 1.86619 11.12696 2.79881-4.2896-27.19992.24429-53.51986 6.89647-76.79686-.005.005-.008.0102-.0136.0153.0119-.1863.0275-.37228.039-.5586z"/><path d="m328.84374 376.77344c.037.6926.0671 1.38525.0995 2.07812-.0327-.69275-.0624-1.38564-.0995-2.07812z"/><path d="m329.07227 381.91601c.031.83513.0599 1.67052.0839 2.50587-.0244-.83545-.0526-1.67064-.0839-2.50587z"/><path d="m298.43945 111.30859c-.21716 1.39626-.51022 2.77832-.88672 4.13477.378-1.35626.6695-2.73841.88672-4.13477z"/><path d="m297.4121 115.92188c-.14872.50479-.3133 1.00397-.48827 1.5.17539-.49585.33906-.99542.48827-1.5z"/><path d="m296.74414 117.92969c-.23604.63075-.48792 1.25636-.77149 1.86914.28364-.61289.53494-1.23838.77149-1.86914z"/><path d="m294.05663 128.57617c.30488.17463.59455.37026.875.57813-.28031-.20759-.57041-.40358-.875-.57813z"/><path d="m295.16211 129.32812c.0648.0519.12871.10426.19141.1582-.0627-.0539-.12668-.10633-.19141-.1582z"/><path d="m295.68359 129.79297c.0522.0514.10598.1012.15618.1543-.0504-.0531-.10395-.10295-.15618-.1543z"/><path d="m339.61914 142.39062c-16.75695 9.25435-24.34465 14.92477-27.44141 46.83204.68509 1.38988 1.36052 2.7837 2.00782 4.1914 5.57196 12.11733 9.40516 25.03183 11.34765 38.22656 7.29483 7.53211 13.37794 16.2363 17.94336 25.67579 13.26079 27.418 13.14474 59.36193 9.53321 89.60351-.11214.93881-.16866 1.39723-.23243 1.91797-.10934.89293-.21228 1.67955-.45312 3.29297 1.63639.86456 3.21006 1.61874 4.74414 2.29297-1.55244 4.74934-2.02032 9.82851-1.62695 14.78906.36173 4.56146 1.5119 9.34927 4.63086 12.93555 2.52116 2.89893 6.04105 4.66163 9.61328 5.71875 6.14623 1.81885 12.83017 1.72431 18.92187-.26953l.002-.002h.004c9.95768-3.33447 18.76336-9.95915 24.72852-18.60156 1.96616-2.8486 3.67671-5.99077 4.45898-9.45898.11306-.50124.19781-1.01193.26758-1.52539 3.14547-5.43273 5.29776-11.49986 6.45703-17.67579 2.18472-11.63895 1.18172-23.65751-.84961-35.32421-2.76996-15.90893-7.43105-31.45936-13.36328-46.47852-4.36354-11.04756-9.46889-21.90961-16.60352-31.40625-6.98171-9.29311-15.78332-17.11556-22.62304-26.51367-3.60386-4.95187-6.66768-10.33593-10.41992-15.14844-.00057-.00072-.001-.001-.002-.002-1.51786-3.13406-3.01539-6.27684-4.46875-9.44141-4.51631-9.83395-8.61284-19.88851-13.96289-29.29492-.83257-1.46385-1.71167-2.90525-2.61328-4.33399zm1.11914 92.37696c3.78436 2.18257 7.70009 4.13504 11.56641 6.17187 14.83267 6.93468 27.39475 19.20294 32.08593 34.93555 6.88268 20.57422.47058 42.27546-7.29687 61.64258-.1276.12563-.2483.3057-.36719.50781.5184-.0405 1.03758-.0698 1.5586-.0762 2.43479-.0299 4.89146.28672 7.29882.69531 3.70707.6292 7.37485 1.47191 11.07032 2.16602.63692.11963 1.27678.23524 1.91601.35156-1.03767-.0589-2.07641-.1011-3.11523-.13281-.38076-.0115-.76172-.0176-1.14258-.0254-.82488-.0172-1.64956-.0255-2.47461-.0254-.29038.00015-.58071-.00036-.87109.002-1.13955.009-2.27912.0281-3.41797.0703-2.56678.0951-5.1303.27457-7.6875.51563-.75872.0715-1.51997.15045-2.2793.24414-.75949.0937-1.51708.20217-2.26953.33203-.001.00022-.003-.00022-.004 0-.005.001-.009.003-.0137.004-1.37997.23887-2.73921.55961-4.05664 1.00391v-.002c-.71251.24026-1.41469.50866-2.09766.83203-.331.15673-.65564.32342-.97656.49805-.96274.52388-1.88513 1.11914-2.79687 1.73437-1.21565.8203-2.4132 1.6757-3.66211 2.44141-.4748.29109-.9584.56742-1.44922.83008-.003.002-.006.004-.01.006-.0583.0312-.11925.0571-.17773.0879 1.30278-2.36588 2.94244-4.54462 4.93359-6.36523 2.23757-2.04593 4.91816-3.62926 7.82227-4.48633 6.36537-17.79901 12.00645-36.22246 9.17969-54.52344-1.98352-12.84154-8.38555-25.18865-18.58203-33.38476-6.18751-4.97362-13.72609-8.41317-20.05665-13.67774-.91091-.75749-1.77944-1.55548-2.62695-2.37304z"/><path d="m302.88086 170.5918c.13396.29423.27417.58561.41016.87889-.13584-.29327-.2763-.58469-.41016-.87889z"/><path d="m304.24219 173.48632c.73045 1.51982 1.47952 3.0321 2.24219 4.53712-.76238-1.50575-1.51196-3.01663-2.24219-4.53712z"/><path d="m370.63476 358.85352c.29147.0902.58303.18106.875.26953-.29212-.0885-.58337-.17931-.875-.26953z"/><path d="m373.97266 359.83593c.64737.17511 1.29937.33689 1.95312.49024-.65378-.15381-1.30572-.31511-1.95312-.49024z"/><path d="m376.76757 360.51171c.39738.087.79415.17377 1.19337.25196-.399-.0785-.79623-.16466-1.19337-.25196z"/><path d="m378.97851 360.95116c.27124.0478.54255.0933.81446.13668-.27165-.0438-.54347-.0887-.81446-.13668z"/><path d="m381.17773 361.29297c.11005.0153.22004.0273.33008.041-.11005-.0136-.22006-.0263-.33008-.041z"/><path d="m329.19921 399.11523c-.0329 1.32175-.0788 2.64398-.13278 3.96484.0536-1.32147.10056-2.64248.13278-3.96484z"/><path d="m329.0293 403.95509c-.0594 1.33727-.12515 2.67376-.20703 4.00975.0819-1.33592.14788-2.67256.20703-4.00975z"/><path d="m254.93555.00585938c-12.15542-.13218771-24.45906 2.32871402-35.16016 8.09570312-11.37313 6.1291475-20.68932 15.9355525-26.42969 27.5097655-5.73769 11.568802-7.89961 24.625067-8.33398 37.53125-.42656 12.674047.74132 25.339244 1.21289 38.011722.49044 13.17956.22794 26.39568 1.32031 39.53906.35205 4.23579.84499 8.46836.83008 12.71875-.017 4.64726-.63042 9.38407.53516 13.88281.77645 2.99682 2.33073 5.76965 4.36914 8.09961 1.00581 1.14969 2.12932 2.19181 3.33593 3.12891 1.94655-3.08689 3.62809-6.31146 4.58985-9.81836 1.50489-5.48744 1.1571-11.28095 1.375-16.9668.0789-2.05986.24053-4.12404.58594-6.1543-1.26615-1.13355-2.60922-2.17587-4.05079-3.08203-.74915-.4709-1.52275-.9052-2.23828-1.42578-.71552-.52058-1.37675-1.13659-1.83007-1.89648-.20906-.35041-.35818-.73227-.46876-1.125-.04-.0868-.0856-.17084-.11523-.26172-.10378-.31791-.14703-.65387-.14844-.98828-.003-.66881.15688-1.3272.29102-1.98242.17903-.87451.31627-1.75875.48047-2.63672s.35455-1.74948.63867-2.59571c.72243-2.15175 2.02444-4.06328 3.45898-5.82226.35486-.43511.72103-.85941 1.09375-1.2793.1102-.12406.22421-.2445.33594-.36719.26652-.2929.53555-.58418.81055-.86914.12929-.13384.2595-.26638.39062-.39843.29847-.30089.60241-.59534.91016-.88672.0944-.0893.18795-.17918.2832-.26758.40908-.37994.82365-.75444 1.24805-1.11719-.36931-.31628-.72872-.64154-1.06836-.98828-1.91641-1.95652-3.35406-4.35205-4.37695-6.89258-2.04578-5.08106-2.44751-10.65005-2.8418-16.11328-.43545-6.033587-.86678-12.25422 1.04883-17.992187.9578-2.868983 2.51457-5.571716 4.72461-7.636719 2.21002-2.065 5.09897-3.458539 8.11914-3.623046 2.26725-.123494 4.54372.440828 6.58008 1.445312 2.03635 1.004482 3.84112 2.43829 5.42382 4.066406 3.2679 3.36166 5.60958 7.56265 7.07618 12.015625 1.46659 4.452974 2.07916 9.157909 2.14648 13.845699.0205 1.42854-.0322 2.8588-.13477 4.28516.001-.00038.003-.002.004-.002.32432-.0906.65393-.15925.98047-.24219.53903-.13694 1.07693-.27519 1.62109-.39062.72117-.1529 1.44598-.28917 2.17383-.40235.058-.009.11581-.0186.17383-.0273.7758-.1171 1.55396-.21192 2.33398-.28125.0404-.004.0807-.006.1211-.01 1.56581-.13405 3.13661-.16633 4.69922-.0918.0872.004.17451.005.26172.01.72864.0405 1.45427.10778 2.17773.19727.19637.0242.39203.0502.58789.0781.17653.0252.35322.0498.5293.0781.27611.0443.55129.0946.82617.14648.16474.0311.32989.0599.49414.0937.30112.0621.60106.13164.90039.20313.12691.0303.2543.0578.38086.0898.43322.1096.8642.22745 1.29297.35742 1.37383.41643 2.70475.94799 4.01758 1.52734.0128.006.0262.01.0391.0156-.36356-.88147-.70056-1.77119-1.00977-2.66797-2.35011-6.81591-3.28287-14.411301-.84765-21.197264 1.93224-5.384388 5.88261-9.903207 10.59765-13.142578 1.46273-1.004939 3.00986-1.900245 4.66407-2.542969 2.90253-1.12775 6.101-1.448116 9.18554-1.021485 3.08456.426632 6.0522 1.588797 8.66602 3.28125 5.22765 3.384909 8.93266 8.814372 10.97656 14.697266 1.88154 5.415614 2.44116 11.23488 2.11914 16.95898-.25272 4.49242-1.05753 9.0064-2.94726 13.08985-1.29072 2.78908-3.13034 5.35755-5.43164 7.37695.003.00098.006.003.01.004.38842.11287.77494.23038 1.15625.36328.43847.14986.87249.31333 1.29688.50195.35697.15866.70904.33358 1.05078.5293.00076.00043.001.002.002.002.85342.48908 1.63454 1.10063 2.21484 1.875.0003.0004-.0003.002 0 .002.11581.15463.22538.31654.32422.48438.0813.13812.15345.28143.21875.42773.001.003.003.005.004.008.0659.14324.12082.2904.17187.43945.0148.0189.0323.0356.0469.0547.76148.99455 1.22381 2.19741 1.4375 3.43164.2137 1.23422.18634 2.50047.0371 3.74414-.29846 2.48733-1.07944 4.89607-1.39844 7.38086-.24643 1.91963-.23098 3.93273-1.07617 5.67383-.21467.44222-.47955.85195-.7832 1.23242.60705 1.05162 1.17346 2.12757 1.69531 3.2207 1.70175 3.5648 3.03308 7.29318 4.5664 10.9336 3.13356 7.43937 7.09284 14.4969 10.66211 21.73828 15.79164-.26085 27.06924-5.97284 28.00977-22.52344.9315-17.11035-1.80861-34.1854-2.68164-51.29883-.92171-18.057953.20059-36.470223-4.53568-53.920121-2.30934-8.508306-5.98754-16.631005-10.72461-24.066407-5.55044-8.712127-12.59188-16.519284-20.95703-22.580078-13.34709-9.6703485-29.87236-14.64890048-46.35351-14.82812462zm28.00586 60.63085962c1.84613.07422 3.63822.487032 5.53711 1.748047 5.27065 3.500289 7.83627 7.506536 9.81054 12.390625.54101 1.338472 1.05901 3.609316.42578 4.310547-2.7124-5.500318-6.57882-10.445896-11.67187-13.828126-2.63224-1.748112-5.58236-3.017203-8.66602-3.68164.4914-1.029299 1.74565-.872999 2.69336-.919922.6331-.03168 1.25571-.04427 1.8711-.01953zm-72.00391 3.896484c2.18412.03765 4.36707.56404 6.33008 1.412109 2.24344.969244 4.54272 2.416676 6.55664 3.919922.81726.609939 1.67268 1.23722 2.21484 2.048828 1.66294 2.489452 2.48253 5.328634 2.92383 8.263672-1.78612-3.809792-4.4254-7.401777-7.97461-10.3125-1.91558-1.57097-4.05734-2.950678-6.30078-3.919922-1.64683-.711571-3.45983-1.182459-5.2832-1.341796.19947-.01813.4048-.02447.60547-.03516.31224-.01492.61572-.04584.92773-.03515z"/></g><path d="m151.72075 373.06442c5.21482 7.9961 5.75392 8.40312 10.1273 15.49787 1.71043 2.77474 2.11082 3.44912 2.99961 4.93771 5.60691 9.39077 10.7573 19.08869 17.23632 27.90039 4.22929 5.75199 8.99967 11.08972 13.25 16.82617 4.25036 5.73644 8.01769 11.96532 9.90235 18.85156 2.44892 8.94795 1.50083 18.81096-2.75781 27.05274-2.99586 5.79788-7.59235 10.77353-13.18164 14.14258-5.58928 3.36905-12.16009 5.11177-18.68165 4.86718-10.36835-.38884-19.83928-5.57101-29.47851-9.41015-19.63903-7.82188-40.97031-10.27529-61.212892-16.36719-6.221204-1.87223-12.339129-4.08831-18.603516-5.81055-2.78324-.76518-5.609643-1.4383-8.238281-2.63085-2.628636-1.19258-5.086773-2.96624-6.548828-5.45508-1.130067-1.9237-1.608987-4.18906-1.578125-6.41992.03086-2.23087.552907-4.43346 1.3125-6.53126 1.519185-4.19556 3.974228-7.9935 5.63086-12.13671 2.704982-6.76515 3.190962-14.22522 2.826171-21.50196-.36479-7.27673-1.544806-14.49093-2.042968-21.75976-.222454-3.24587-.307231-6.53266.3125-9.72657.61973-3.19392 1.994393-6.31545 4.33789-8.57226 2.160556-2.08063 5.028544-3.31716 7.964844-3.92969 2.936298-.61252 5.960241-.6399 8.958984-.57226 2.998748.0676 6.004713.22805 8.994141-.0176 2.989426-.24569 5.991565-.9178 8.595703-2.40625 2.475797-1.4151 4.501852-3.51642 6.179688-5.82227s3.033569-4.82658 4.423829-7.3164c1.39026-2.48983 2.83039-4.97064 4.65039-7.16602 1.81999-2.19538 4.05123-4.10918 6.68555-5.20117 2.71207-1.12423 5.76322-1.32932 8.65039-.79688 2.88716.53245 5.61456 1.77983 8.04297 3.42969 4.8568 3.29974 8.45822 8.10225 11.9082 12.85352 3.16791 4.3628 6.28568 8.76382 9.33203 13.21289.00045-.007.002-.0143.002-.0215m-19.36328-28.01367c-11.03242-5.97324-22.00472-8.65752-30.89067 1.4473-2.39819 2.87367-4.035021 5.94907-5.539066 8.77734-3.00809 5.65657-5.688695 9.65239-7.458984 10.41992-2.934771 1.27243-8.886153 1.53804-15.513672 1.84766-6.627518.30962-14.419825.69891-20.855469 6.05859-3.744274 3.11828-6.429685 7.19968-7.392578 11.58594s-.466853 8.62225.390625 13.11914c2.512976 13.17889 5.401599 27.47003-.205078 38.79102-1.990545 4.01925-4.656454 8.54153-6.36914 13.74218-1.712685 5.20065-2.297055 11.88823 1.242187 17.75196 2.417366 4.00497 5.821807 6.94894 9.222656 8.34765 3.400848 1.3987 6.121433 1.71086 9.572266 2.71289 4.342935 1.26104 14.251636 4.40897 18.615234 5.75196 21.518608 6.62254 41.077559 9.97929 61.591799 16.29882 3.78915 1.16728 8.66533 3.67442 14.04883 5.94336s11.48828 4.44283 18.35547 3.68555c14.10438-1.55534 29.44498-9.25159 37.14648-22.20117 6.04585-10.16582 6.52581-21.4951 3.4707-32.25586-4.38268-15.43666-17.89833-27.66889-24.11133-37.33789-12.08786-27.32713-31.8966-58.41651-55.32026-74.48636z"/><path d="m339.57227 347.80664c-.40662.003-.8212.0146-1.24415.0371h-.004c-3.46783.18566-7.42105 1.14194-10.78711 4.04102-2.90352 2.50075-4.44196 5.69426-5.23633 8.73046-.0515.16811-.0965.33816-.13476.50977-.13363.56558-.24237 1.1278-.32813 1.68555-.55325 3.60129-.24955 6.72631-.0742 9.27343 1.04489 15.17441 1.08844 30.34408-.52344 45.25977-.88646 8.20303-2.28963 16.46007-3.78906 24.81445-1.80491 10.05656-3.84757 20.61017-3.82422 31.73047.0136 6.35186.68835 13.71035 4.84571 20.34375 4.17136 6.65578 10.61 10.54294 16.65625 13.14453 8.60317 3.70185 18.3226 5.58125 28.07421 4.13477 8.00678-1.18767 15.38491-4.52636 21.70313-9.04297 6.22096-4.4471 11.0738-9.67066 15.78906-14.12891 5.51454-5.21389 11.33966-9.97939 17.55078-13.99023 9.28972-5.99878 19.98602-10.59937 30.80274-16.04688 6.35717-3.20158 13.46155-6.99959 19.00195-13.51757 2.50726-2.94966 4.5195-6.29722 5.94531-9.89649l-.14648.0996c.15435-.37198.27527-.75696.36133-1.15039l.082.10352c.70225-2.9908.6145-6.05517-.18164-8.95313-.38759-1.41094-.94927-2.78222-1.68555-4.08398-1.64123-2.90181-3.82855-4.98051-5.89453-6.59766-2.05116-1.60557-3.97816-2.76749-5.53516-3.81836-3.319-2.24007-6.58076-4.91687-9.98047-7.74414-3.40245-2.82958-6.49893-5.47014-8.86914-8.27344-2.34425-2.77268-3.99773-5.7909-4.55078-8.64062v-.004c-.0707-.36599-.13073-.76333-.18164-1.1914-.33214-3.03846-.26878-4.59815-.50781-6.99024-.34269-3.27135-1.05172-6.64081-2.36719-9.93945-.96928-2.43053-2.35698-5.09373-4.68945-7.44531-3.08081-3.10608-6.70778-4.60043-9.83399-5.57422-3.0391-.94663-6.28985-1.57438-9.68164-1.65625-8.24607-.19897-14.81391 2.41339-20.0957 3.02539-4.89932.56763-10.13625-.0324-15.32422-1.42188-3.11525-.83443-6.52745-2.06153-10.41015-3.07031-6.15585-1.59941-12.10571-2.2366-17.59766-3.04297-2.04192-.29981-4.48771-.73076-7.33398-.71289zm1.94726 5.43945c1.80158.0672 3.59877.34616 5.38672.60743 5.61741.82085 11.27924 1.46789 16.76953 2.9121 3.46425.91129 6.83905 2.13498 10.29688 3.07032 5.7701 1.5608 11.81496 2.30969 17.75195 1.61523 6.39177-.74765 12.59975-3.15023 19.0332-2.99414 2.63965.064 5.25909.56355 7.77735 1.35742 2.56979.81012 5.10167 1.97074 6.99023 3.89258 1.4353 1.4606 2.43639 3.29806 3.1875 5.20313 1.11893 2.83795 1.72057 5.8627 1.97852 8.90234.0212.24999.0292.50156.0469.75195h-.002c.16904 2.44723.19532 4.91099.6582 7.31836.83948 4.36598 3.13175 8.348 5.98242 11.75977 2.85068 3.41177 6.25738 6.31047 9.66016 9.17187 3.39004 2.8507 6.80202 5.6884 10.45898 8.1875 1.71632 1.17291 3.48762 2.27178 5.11719 3.5625.77044.61024 1.50673 1.2715 2.18164 1.98633h-.002c.37655.39885.73406.81488 1.06445 1.25.1652.21756.32387.44013.47461.66797s.2934.46028.42774.69922c1.38194 2.45796 1.80379 5.44063 1.1582 8.18555-.26056.66713-.55327 1.32116-.86328 1.96679-.0412.0856-.0791.17263-.1211.25781-.00064.001-.001.003-.002.004-1.02392 2.07838-2.2964 4.03463-3.78906 5.80664-4.44944 5.28212-10.62806 8.76798-16.78125 11.9043-10.49463 5.34918-21.37025 10.04139-31.23633 16.47656-6.61026 4.31155-12.71286 9.37303-18.41797 14.82617-4.87915 4.66366-9.5048 9.64404-14.97656 13.59571-5.52097 3.9872-11.90387 6.87612-18.63867 7.88671-8.19116 1.22914-16.65486-.36095-24.24805-3.66992-5.32065-2.31863-10.43904-5.63576-13.50391-10.56445-3.0766-4.94757-3.77933-11.00199-3.78711-16.82813-.0138-10.30479 1.89736-20.50168 3.69532-30.64843 1.49395-8.43113 2.91521-16.88129 3.83203-25.39453 1.66759-15.48467 1.6561-31.12384.54297-46.65821-.0184-.25729-.0343-.51574-.0527-.77343-.0357-.49928-.0667-1.00006-.0957-1.5-.067-1.0211-.076-2.05164-.0586-3.0254-.006-.31677.0179-.58955.0273-.875.0339-.5455.0843-1.09068.16602-1.63281.0731-.48469.17794-.96755.30078-1.44531.0234-.0917.045-.18412.0703-.27539.0448-.16055.0937-.31984.14453-.47852.0303-.0955.0613-.19048.0937-.28515.0707-.2043.14352-.40756.22461-.60742.008-.019.0157-.0377.0234-.0566.40035-.97258.92539-1.88577 1.58984-2.68555.004-.005.008-.0106.0117-.0156.29689-.35588.61238-.69701.9668-1.00195 1.8263-1.57133 4.27607-2.26528 6.68164-2.39844.60139-.0333 1.2022-.0341 1.80273-.0117zm88.64063 25.10547.16601 2.26172c-.0301-.51055-.052-1.0223-.0957-1.53125-.021-.24399-.0449-.48678-.0703-.73047zm.16601 2.26172c.0951 1.61103.1616 3.22454.35156 4.82227z"/><path d="m231.97852 104.23828c-2.19758 2.64839-3.91445 5.66719-5.93555 8.44727 11.49417-4.75495 16.97661-6.18502 31.73242 1.18945-1.4748-1.87461-2.29607-4.16583-3.32617-6.31836-1.08341-2.26392-2.44081-4.43154-4.27149-6.14844-6.20731-5.525907-13.40661-2.890814-18.19921 2.83008z" fill="#020204"/><path d="m183.17969 180.58203c-4.72037 5.89093-9.43276 11.78778-14.13477 17.69336-4.84476 6.08489-9.67997 12.1778-14.5625 18.23242-5.99073 7.42887-12.12313 14.91302-16.02344 23.62305-3.35132 7.48406-4.93595 15.6143-7.23242 23.48633-2.60797 8.93985-6.14899 17.58677-10.125 26.00781-3.67135 7.77577-7.71615 15.36845-11.76758 22.95312-2.94764 5.51829-5.94281 11.15988-6.96484 17.33204-.80768 4.87766-.33745 9.91166.9043 14.69726 10.07301-2.64434 15.24145-6.78604 28.63753.50218 18.91967 15.1042 45.35767 52.5763 50.17301 76.29079.52342.71186 1.0558 1.41648 1.59375 2.11719 1.91197.47815 3.85734.7821 5.83399.8164 2.59313.0449 5.21336-.38267 7.58789-1.42578 2.37453-1.04308 4.49558-2.72016 5.90625-4.89648 1.73443-2.67581 2.32277-6.00023 1.97461-9.16992-.34815-3.16969-1.58497-6.19487-3.24414-8.91797-4.05292-6.6518-10.45546-11.46429-16.61328-16.23438-13.29602-10.29958-26.15763-21.16406-38.46485-32.62695-3.47489-3.2365-6.95088-6.57525-9.3789-10.65625-2.36445-3.97414-3.64062-8.50226-4.50586-13.04492-2.37365-12.46199-1.76575-25.57879 2.47461-37.53516 1.65887-4.67746 3.85219-9.14294 5.96679-13.63281 3.66518-7.78213 7.13352-15.71283 11.95313-22.83789 22.6218-25.58395 23.11051-42.3726 30.01172-72.77344z" fill="#020204"/><path d="m275.42773 89.558594c-.41494-.02032-.83106-.01617-1.24609.01367-1.77291.127032-3.50172.732606-5.00586 1.679687s-2.7861 2.228562-3.79297 3.693359c-2.01373 2.929597-2.89846 6.52409-3.04101 10.07617-.10701 2.66632.18795 5.3671 1.07226 7.88477.79752 2.27053 2.09435 4.38479 3.84766 6.02734 2.84208.78011 5.38827 1.66776 7.37109 3.37696.23852.0255.4771.0529.7168.0644 2.72748.13109 5.49327-.65478 7.73437-2.21484 1.78546-1.24288 3.22481-2.9543 4.25-4.87305 1.0252-1.91875 1.6434-4.04216 1.92579-6.19922.49878-3.81012-.0653-7.78773-1.82618-11.203126-1.76093-3.415393-4.74977-6.228254-8.35547-7.556641-1.17128-.431517-2.40551-.708594-3.65039-.769531zm1.75 4.251953c.26335-.01035.524.0053.75977.03516 2.03964.258403 4.08405 1.64349 5.33984 3.496094 1.38335 2.041477 2.81557 5.168969 1.78907 7.468749-.26245.58761-1.07968.93017-1.6211.69922-1.72488-.73621-1.39056-3.9851-2.61914-5.550782-.64186-.818032-1.52718-1.352271-2.375-1.871093-.87289-.534403-2.10225-.414389-2.75976-1.259766-.40601-.522107-.77029-1.412618-.47461-2.023437.34406-.711165 1.17093-.963208 1.96093-.994145z" fill="#020204"/><path d="m210.02148 91.09375c-.78839.05745-1.5635.241343-2.2832.568359-1.59795.72609-2.8348 2.108763-3.64453 3.666016-.80971 1.557251-1.22676 3.287947-1.51367 5.019535-.63101 3.80831-.65293 7.80409.65625 11.43554.86447 2.39795 2.28875 4.57384 4.02148 6.44336 1.13454 1.2241 2.42266 2.33724 3.92774 3.0586 2.94524-1.23616 7.11563-6.0493 10.89062-6.75782 1.11239-4.14055.86709-8.60046-.40039-12.70312-.97814-3.166081-2.59833-6.218744-5.13281-8.353517-1.20923-1.018522-2.62587-1.816197-4.16406-2.181641-.7691-.182722-1.56905-.252773-2.35743-.195312zm3.50782 3.998047c.5734-.0068 1.21165.224536 1.69726.482422 1.68025.89233 3.04529 2.669796 3.59766 4.546871.60866 2.0684.94959 5.00517-.58789 6.46094-.393.37213-1.19398.36429-1.59375 0-1.27358-1.16038-.0612-3.59522-.67188-5.23828-.31901-.85841-.92849-1.577993-1.50976-2.271484-.59842-.714163-1.68903-1.034694-2.01367-1.919922-.20035-.546484-.26011-1.367071.16796-1.746094.24917-.220551.57001-.310349.91407-.314453z" fill="#020204"/><path d="m228.08984 109.29297c-7.99238 2.77571-15.2115 7.71154-20.70898 14.14258-3.06012 2.53215-5.99803 5.21347-8.79883 8.02929-3.80198 5.08552-6.60437 13.99369-4.18553 14.46666.0578-.37109.13363-.74129.20899-1.10937.35807-1.74902.55091-3.53997 1.11914-5.23243.72243-2.15175 2.02444-4.06328 3.45898-5.82226 2.50818-3.07544 5.4714-5.77824 8.76368-7.99414 5.40699-6.35667 12.53658-11.23481 20.41992-13.97266 7.09674-2.46466 14.95501-3.17927 22.14453-1 3.21559.97471 6.23378 2.50061 9.19531 4.08789 2.88071 1.54397 5.72684 3.15405 8.6543 4.60742 5.88874 2.92354 12.09933 5.2031 18.49023 6.7461 2.08045.50229 4.1966.93349 6.15235 1.80273 1.42789.63464 2.79885 1.54615 3.59179 2.89258.63332 1.57711 1.29077 2.22987 1.48047.52549-.16568-2.85249-2.42517-4.85763-4.72851-5.90039-2.06851-.91936-4.23682-1.35224-6.29688-1.84961-6.32736-1.52766-12.47906-3.78751-18.3125-6.68359-2.90011-1.4398-5.73879-3.04564-8.63086-4.59571-2.97352-1.59371-6.03988-3.14714-9.34961-4.15039-7.63373-2.04432-15.85459-1.31475-22.66799 1.00981z"/><path d="m298.61523 137.59375c-.0143.48453-.0458.9683-.10351 1.44922-.29848 2.48733-1.07944 4.89607-1.39844 7.38086-.24645 1.91963-.23098 3.93273-1.07617 5.67383-.87848 1.80967-2.59053 3.08959-4.41016 3.94726-1.81963.85769-3.78305 1.35921-5.66992 2.05664-8.64674 3.19601-15.20479 10.27694-23.05273 15.11328-4.12862 2.54428-8.62723 4.46782-13.2793 5.83789-5.01978 1.47835-10.29133 2.31813-15.49805 1.79493-4.43375-.44554-8.79744-1.90368-12.44531-4.46289-5.16592-3.62424-8.58753-9.15817-12.45508-14.14454-2.88269-3.7166-6.12919-7.23514-10.11133-9.73828-.74915-.4709-1.52275-.9052-2.23828-1.42578-.71552-.52058-1.37673-1.13659-1.83007-1.89648-.20906-.35041-.35807-.7325-.46876-1.125-.04-.087-.0856-.17084-.11523-.26172-.10378-.31791-.14703-.65387-.14844-.98828-.00021-.0498.0122-.0987.0137-.14844-2.83204 1.36332-2.73536 6.12263-1.40234 7.51172 5.36414 3.30766 10.23464 7.42596 14.38672 12.16601 3.82274 4.36408 7.36545 9.78182 12.96875 13.47657 4.10998 2.71004 8.88011 4.10009 13.62109 4.52148 5.59674.49745 11.14226-.32054 16.38282-1.73047 4.80315-1.29223 9.50742-3.11984 13.88281-5.62695 8.22699-4.71409 14.7613-11.22173 22.56055-13.70508 1.7096-.54437 3.74426-.94726 5.87695-1.85156 1.06759-.45266 2.15505-1.03819 3.16015-1.84961 1.00996-.81532 1.9198-1.8482 2.55079-3.125.0704-3.87251 6.45008-18.03055.29885-18.84961z"/><path d="m287.39453 136.05664c-.78985-.007-1.57275.0786-2.32422.32031-.98597.31719-1.87261.89011-2.67187 1.54883-.79928.65874-1.52049 1.40756-2.26563 2.12695-2.1953 2.11947-4.60747 4.00076-7.05273 5.82618-5.38309 4.0185-11.01618 7.81354-17.26563 10.27734-4.08082 1.60884-8.3683 2.62746-12.66992 3.48633-5.41286 1.08075-10.91605 1.91761-16.43164 1.70508-5.51561-.21254-11.07906-1.52436-15.74414-4.47461-2.11136-1.33524-4.00872-2.98187-6.06641-4.39844-2.05766-1.41657-4.34402-2.62207-6.82617-2.9043-.5499-.0626-1.10632-.08-1.64844-.1914-.17975-.037-.35581-.0913-.52929-.1543-.0661.40767-.0319.8253.0996 1.2168.77737 2.08135 2.49973 2.87217 4.60547 3.31054 1.36428.3207 2.78321 1.25383 4.16015 2.49219 1.38854 1.24877 2.78906 2.8354 4.59961 4.30859 4.9142 3.99857 11.20225 5.54392 17.19727 5.64258 5.9633.0982 11.67579-1.13187 17.14257-2.36328 4.29301-.96698 8.68496-1.99573 12.99219-3.58398 6.62029-2.44119 12.74782-6.12542 18.05469-10.74219 2.40412-2.09152 4.48588-4.18045 6.73633-5.59375 1.99036-1.24996 4.52746-2.19258 7.11719-3.7207.23832-.14059.56456-.33386.93164-.63868.38099-.3163.79568-.74796 1.10937-1.37695.28061-.56271.39348-1.12869.41016-1.66406-.43222-.0714-.86387-.14669-1.29492-.21875-.77859-.13016-1.57539-.2295-2.36523-.23633z" fill="#020204"/><path d="m247.52802 115.12831c-.73108.0373-1.41389.18898-2.03304.53325-.37835.21032-.79532.7199-.66657 1.13317.39468 1.2668 2.41989 1.05883 3.59947 1.66643 1.03508.53314 1.86908 1.69948 3.03291 1.73308 1.11071.032 2.85505-.39803 2.99955-1.49984.19089-1.45557-1.93174-2.36627-3.29952-2.89952-1.10005-.42895-2.41435-.72843-3.6328-.66657zm-22.79667.89981c-1.48401.2004-3.31543 2.40296-2.59963 3.59948.22469.37562.90318.85459 1.36648.59991.69833-.38384 1.27638-1.76145 2.03302-2.29961.50523-.35931.38968-1.67485-.19996-1.86639-.18944-.0619-.38792-.0619-.59991-.0331z" fill="#020204"/><path d="m399.62162 340.51681-7.56468-2.42859c-3.04432-.97736-6.13414-1.89586-9.31913-2.17702-3.18498-.28115-6.42975.05562-9.46693 1.05492l-2.61367 1.81021" fill="none"/><path d="m358.91264 350.17644c.95632-.4589 1.8891-.96688 2.79339-1.5213 2.49783-1.53141 4.78614-3.42068 7.4342-4.67452 3.32812-1.57584 7.05427-2.06893 10.72035-2.41452 2.5572-.24106 5.12054-.42025 7.68732-.51539 4.99629-.18516 10.00436-.05138 14.98363.40031l-2.90991-.93421" fill="none"/><path d="m363.30619 343.86759-4.34363 3.00837-.67364 3.5913c.20897-.09463.4169-.19158.62372-.29082" fill="none"/><path d="m370.65721 338.77633-7.35102 5.09126" fill="none"/></g></svg>